<?xml version="1.0" encoding="iso-8859-1"?>
<!-- Uploaded to: SVG Repo, www.svgrepo.com, Generator: SVG Repo Mixer Tools -->
<!DOCTYPE svg PUBLIC "-//W3C//DTD SVG 1.1//EN" "http://www.w3.org/Graphics/SVG/1.1/DTD/svg11.dtd">
<svg fill="#000000" height="800px" width="800px" version="1.1" id="Capa_1" xmlns="http://www.w3.org/2000/svg" xmlns:xlink="http://www.w3.org/1999/xlink" 
	 viewBox="0 0 268.195 268.195" xml:space="preserve">
<path d="M261.759,83.007l-11.505-11.505l14.191-14.191c4.289-4.289,4.289-11.268,0-15.557L226.173,3.48
	c-2.069-2.069-4.832-3.21-7.778-3.21c-2.945,0-5.708,1.141-7.777,3.21l-57.738,57.737c-3.597,3.598-4.164,9.082-1.727,13.29
	c-11.903,10.726-24.047,22.25-36.089,34.293C64.394,159.468,18.041,217.34,12.244,243.027L1.181,262.401
	c-1.182,2.069-1.473,3.561-0.892,4.565c0.208,0.357,0.723,0.958,1.834,0.959c0.888,0,2.032-0.396,3.401-1.179l19.454-11.108
	c24.047-5.626,78.482-47.108,134.148-102.773c12.035-12.035,23.56-24.181,34.29-36.089c1.656,0.959,3.541,1.481,5.514,1.481
	c2.945,0,5.708-1.14,7.777-3.209l22.333-22.333l5.848,5.848l-61.679,61.68c-5.858,5.857-5.858,15.355,0,21.213
	c2.929,2.929,6.768,4.394,10.607,4.394s7.678-1.465,10.606-4.394l67.336-67.336c4.15-4.149,6.436-9.675,6.436-15.557
	C268.195,92.682,265.91,87.156,261.759,83.007z"/>
</svg>