<svg aria-hidden="true" style="position: absolute; width: 0; height: 0; overflow: hidden;" version="1.1" xmlns="http://www.w3.org/2000/svg" xmlns:xlink="http://www.w3.org/1999/xlink">
<defs>
<symbol id="burgerBtn" viewBox="0 0 32 32">
<path d="M19 26c0 1.657-1.343 3-3 3s-3-1.343-3-3v0c0-1.657 1.343-3 3-3s3 1.343 3 3v0zM19 16c0 1.657-1.343 3-3 3s-3-1.343-3-3v0c0-1.657 1.343-3 3-3s3 1.343 3 3v0zM19 6c0 1.657-1.343 3-3 3s-3-1.343-3-3v0c0-1.657 1.343-3 3-3s3 1.343 3 3v0z"></path>
</symbol>
<symbol id="pen" viewBox="0 0 32 32">
<path d="M31.232 9.904l-1.373-1.373 1.693-1.693c0.512-0.512 0.512-1.344 0-1.856l-4.566-4.567c-0.247-0.247-0.577-0.383-0.928-0.383s-0.681 0.136-0.928 0.383l-6.889 6.889c-0.429 0.429-0.497 1.084-0.206 1.586-1.42 1.28-2.869 2.655-4.306 4.092-6.046 6.046-11.576 12.951-12.268 16.015l-1.32 2.312c-0.141 0.247-0.176 0.425-0.106 0.545 0.025 0.043 0.086 0.114 0.219 0.114 0.106 0 0.242-0.047 0.406-0.141l2.321-1.325c2.869-0.671 9.364-5.621 16.006-12.262 1.436-1.436 2.811-2.885 4.091-4.306 0.198 0.114 0.422 0.177 0.658 0.177 0.351 0 0.681-0.136 0.928-0.383l2.665-2.665 0.698 0.698-7.359 7.359c-0.699 0.699-0.699 1.832 0 2.531 0.349 0.349 0.808 0.524 1.266 0.524s0.916-0.175 1.265-0.524l8.034-8.034c0.495-0.495 0.768-1.154 0.768-1.856s-0.273-1.361-0.768-1.856z"></path>
</symbol>
<symbol id="trash" viewBox="0 0 32 32">
<path d="M4.435 0h23.128v4.738h-23.128v-4.738z"></path>
<path d="M27.565 6.125h-23.128v25.875h23.128v-25.875h0zM10.913 28.467h-1.871v-18.808h1.871v18.808zM16.936 28.467h-1.871v-18.808h1.871v18.808zM22.959 28.467h-1.871v-18.808h1.871v18.808z"></path>
</symbol>
</defs>
</svg>
