<svg width="30" height="30" viewBox="0 0 30 30" fill="none" xmlns="http://www.w3.org/2000/svg">
    <path d="M9.1853 18.8413C9.38976 18.7334 9.62723 18.7002 9.85473 18.7477C10.0822 18.7952 10.2847 18.9202 10.4255 19.1001L18.6797 29.5571C18.838 29.7316 19.0414 29.8619 19.2688 29.9345C19.4963 30.0072 19.7396 30.0196 19.9736 29.9705C20.2076 29.9214 20.424 29.8126 20.6002 29.6552C20.7765 29.4979 20.9064 29.2977 20.9764 29.0753C20.9764 29.0753 22.6622 23.1018 25.3814 14.4426C28.0777 5.86377 28.5968 5.15444 29.8048 1.79963C30.4984 -0.163292 29.7176 -2.28235 21.2107 5.81469C16.5347 10.258 4.18774 21.759 4.18774 21.759L9.1853 18.8413ZM21.7251 12.5154L18.914 21.0585C18.8863 21.1396 18.8371 21.2122 18.7714 21.2689C18.7056 21.3256 18.6257 21.3646 18.5395 21.3817C18.4534 21.3989 18.3641 21.3938 18.2807 21.3668C18.1972 21.3398 18.1226 21.292 18.0642 21.2281L14.0129 16.7669C13.9647 16.714 13.9291 16.6515 13.9085 16.5838C13.888 16.5161 13.883 16.4448 13.894 16.375C13.9049 16.3052 13.9315 16.2386 13.9719 16.1799C14.0123 16.1212 14.0655 16.0718 14.1277 16.0353L21.0178 11.9711C21.103 11.9272 21.1995 11.9082 21.2956 11.9163C21.3917 11.9243 21.4834 11.9592 21.5596 12.0167C21.6358 12.0742 21.6932 12.1519 21.725 12.2403C21.7568 12.3288 21.7617 12.4243 21.7389 12.5154H21.7251Z" fill="#5A6FEF"></path>
    <path d="M1.16203 6.77833C1.16203 6.77833 6.7016 6.05562 11.3592 4.9314C14.3357 4.20869 18.2952 3.14693 20.1371 2.46883C20.1967 2.44734 20.2622 2.44724 20.3218 2.46853C20.3815 2.48983 20.4313 2.53112 20.4623 2.58496C20.4934 2.6388 20.5036 2.70165 20.4911 2.76216C20.4787 2.82266 20.4443 2.87685 20.3944 2.91495L6.2193 13.0641C6.04302 13.1984 5.82549 13.2713 5.60149 13.2713C5.3775 13.2713 5.15997 13.1984 4.98369 13.0641L0.344411 8.94647C0.181165 8.76988 0.0705006 8.55345 0.0242881 8.32041C-0.0219244 8.08738 -0.00194061 7.84651 0.0820956 7.62367C0.166132 7.40082 0.311049 7.2044 0.501302 7.05548C0.691555 6.90655 0.919964 6.81075 1.16203 6.77833Z" fill="#5A6FEF"></path>
</svg>